<svg width="116" height="165" viewBox="0 0 116 165" fill="none" xmlns="http://www.w3.org/2000/svg">
<g clip-path="url(#clip0_1292_3131)">
<rect width="116" height="165" rx="6" fill="#BFBFBF"/>
<path d="M90 51.0103C90.0075 56.4922 88.6419 61.8881 86.0287 66.7021C83.1854 71.9366 78.9891 76.3056 73.881 79.3496C68.7729 82.3935 62.9419 84 57.0011 84C51.0603 84 45.2292 82.3935 40.1212 79.3496C35.0131 76.3056 30.8168 71.9366 27.9735 66.7021C25.3586 61.8887 23.9922 56.4925 24 51.0103C24 50.1359 24.0371 49.2789 24.109 48.4307C24.7819 40.1398 28.5391 32.4066 34.6337 26.7684C40.7283 21.1302 48.714 18 57.0033 18C65.2925 18 73.2782 21.1302 79.3728 26.7684C85.4674 32.4066 89.2247 40.1398 89.8976 48.4307C89.9651 49.2789 90 50.1446 90 51.0103Z" fill="#F0F0F0"/>
<path d="M108 142.459V165H8V142.459C7.99858 136.358 9.20024 130.316 11.5363 124.678C13.8725 119.041 17.2972 113.919 21.615 109.604C25.9328 105.29 31.0589 101.868 36.7006 99.5336C42.3423 97.1993 48.389 95.9986 54.4953 96H61.5047C67.6109 95.9986 73.6577 97.1993 79.2994 99.5336C84.9411 101.868 90.0673 105.29 94.385 109.604C98.7028 113.919 102.128 119.041 104.464 124.678C106.8 130.316 108.001 136.358 108 142.459Z" fill="#F0F0F0"/>
</g>
<defs>
<clipPath id="clip0_1292_3131">
<rect width="116" height="165" rx="6" fill="white"/>
</clipPath>
</defs>
</svg>
